<svg xmlns="http://www.w3.org/2000/svg" viewBox="0 0 100 100">
  <rect width="100" height="100" rx="50" fill="#003087"/>
  <!-- Torch flame -->
  <path d="M50 18 C46 22 43 27 45 32 C42 29 41 25 42 21 C38 26 37 33 40 38 C38 36 37 32 38 28 C34 34 34 42 38 47 C35 45 33 40 34 36 C31 42 32 51 38 56 C40 58 43 59 46 59 L54 59 C57 59 60 58 62 56 C68 51 69 42 66 36 C67 40 65 45 62 47 C66 42 66 34 63 28 C64 32 63 36 61 38 C64 33 63 26 59 21 C60 25 59 29 57 32 C59 27 56 22 50 18 Z" fill="#FFB81C"/>
  <!-- Torch handle -->
  <rect x="45" y="58" width="10" height="20" rx="3" fill="#FFB81C"/>
  <!-- Base -->
  <rect x="38" y="76" width="24" height="5" rx="2.5" fill="#FFB81C"/>
  <!-- CCSU text hint - small horizontal lines as book pages -->
</svg>
